<svg width="136" height="32" viewBox="0 0 136 32" fill="none" xmlns="http://www.w3.org/2000/svg">
<path fill-rule="evenodd" clip-rule="evenodd" d="M21.6043 1.25872C18.569 -0.223372 16.4421 0.0297769 12.8893 0.0297769C9.57142 0.0297769 6.1925 -0.0339592 2.88272 0.0250641C-0.998901 0.0944107 -0.665184 4.74917 2.50815 4.96035C5.55986 5.16367 9.36966 4.96708 12.5046 4.96708C16.0622 4.96708 18.5082 4.53888 20.874 6.60761C26.0153 11.1035 23.3858 19.7817 15.7749 19.7767C13.6027 19.7752 11.0733 19.3216 9.994 20.742C8.7112 22.4305 9.85194 24.4719 11.5849 24.679C15.3539 25.1297 19.8863 24.7825 22.908 22.6929C30.458 17.4715 29.82 5.26915 21.6043 1.25849V1.25872Z" fill="#2F8EDE"/>
<path fill-rule="evenodd" clip-rule="evenodd" d="M0.304188 16.2566C0.235514 16.9435 0.103329 23.483 0.103329 24.7858C0.103329 26.8482 -0.644223 31.1443 1.8821 31.7541C5.44594 32.6143 4.76571 27.486 4.76549 26.1319C4.76549 23.0638 4.48586 19.9542 4.78905 16.9038C4.96298 15.1524 6.13065 14.8061 8.07685 14.8138C10.0015 14.8216 11.9261 14.8178 13.8508 14.818C15.9097 14.8183 17.659 15.1605 18.4921 13.6602C19.3126 12.1829 18.55 10.3617 17.0773 10.0089C16.0697 9.76785 6.76712 9.84393 5.67171 10.0863C3.07042 10.6617 0.592347 13.3741 0.304412 16.2564L0.304188 16.2566Z" fill="#48A7E8"/>
<path d="M39.3268 8.39645H43.4221C46.8968 8.39645 46.9174 13.5259 43.4221 13.5259H39.3268V8.39645V8.39645ZM43.4221 5.79045C41.1469 5.7698 38.8717 5.79045 36.5967 5.79045V20.2893H39.3268V16.0286H43.4221C50.5163 16.0286 50.4956 5.79045 43.4221 5.79045V5.79045ZM50.4543 10.0924V15.4494C50.4543 18.614 52.2331 20.4547 54.6737 20.4547C56.1008 20.4547 57.073 19.9583 58.1278 18.9241L58.2932 20.2893H60.5475V10.0926H58.0448V15.2945C58.0448 16.8561 56.99 18.1591 55.4388 18.1591C53.8254 18.1591 52.9775 16.9802 52.9775 15.429V10.0926H50.4541L50.4543 10.0924ZM70.8479 11.1472C69.669 10.1131 68.4694 9.80268 66.8767 9.80268C65.0153 9.80268 62.5747 10.6299 62.5747 12.9879C62.5747 15.3044 64.8706 16.0078 66.7941 16.1523C68.2419 16.2351 68.8211 16.5246 68.8211 17.2279C68.8211 17.9726 67.9317 18.469 66.9804 18.4481C65.8428 18.4275 64.1881 17.8276 63.4641 17.021L62.2231 18.8204C63.7123 20.3717 65.3255 20.6405 66.9389 20.6405C69.8552 20.6405 71.3236 19.0893 71.3236 17.2899C71.3236 14.5804 68.883 14.1462 66.9595 14.0221C65.6565 13.9392 65.0566 13.5669 65.0566 12.9051C65.0566 12.2639 65.7185 11.8916 66.918 11.8916C67.8902 11.8916 68.7174 12.1192 69.4414 12.8016L70.8479 11.147V11.1472ZM72.937 5.79023V20.2891H75.4602V15.0771C75.4602 13.5465 76.4943 12.2848 77.9836 12.2848C79.3281 12.2848 80.3001 13.0707 80.3001 14.9321V20.2891H82.8235V14.9114C82.8235 11.9125 81.5412 9.94744 78.6454 9.94744C77.4872 9.94744 76.3702 10.2991 75.4602 11.478V5.79023H72.937V5.79023ZM92.9582 11.4986C92.3792 10.4852 91.076 9.84398 89.7111 9.84398C86.7327 9.82333 84.3956 11.664 84.3956 15.1803C84.3956 18.7585 86.6295 20.6199 89.6491 20.5992C90.7867 20.5786 92.3792 19.9996 92.9585 18.7998L93.0826 20.2888H95.461V10.0922H93.041L92.9582 11.4986ZM89.9384 12.0985C93.9096 12.0985 93.9096 18.2827 89.9384 18.2827C88.2631 18.2827 86.9186 17.1245 86.9186 15.1803C86.9186 13.2361 88.2631 12.0985 89.9384 12.0985V12.0985ZM100.507 10.0509V22.4606C100.507 24.984 99.4113 26.6178 97.1154 26.6178C96.3708 26.6178 95.5849 26.4109 94.8609 25.9353L95.7709 23.9705C96.2052 24.1774 96.619 24.2807 96.9911 24.26C97.8186 24.2187 98.0046 23.5775 98.0046 22.4606V10.0509H100.507V10.0509ZM97.7773 7.19669C97.7773 9.16151 100.756 9.16151 100.756 7.19669C100.756 5.23164 97.7773 5.23164 97.7773 7.19669ZM107.457 9.8855C104.21 9.8855 102.183 12.2848 102.183 15.201C102.183 18.138 104.168 20.5164 107.478 20.5164C110.787 20.5164 112.793 18.138 112.793 15.201C112.793 12.2848 110.704 9.8855 107.457 9.8855H107.457ZM107.478 12.1813C109.174 12.1813 110.249 13.6706 110.249 15.2012C110.249 16.7524 109.319 18.2001 107.478 18.2001C105.637 18.2001 104.706 16.7524 104.706 15.2012C104.706 13.6706 105.657 12.1813 107.478 12.1813ZM120.177 12.202C121.791 12.202 123.073 13.3396 123.073 15.1803C123.073 16.9591 121.79 18.1793 120.177 18.1793C118.585 18.1793 117.219 17.021 117.219 15.1803C117.219 13.4015 118.585 12.202 120.177 12.202ZM114.531 5.83175V20.2893H116.888L117.054 18.8828C117.84 20.103 119.101 20.5169 120.343 20.5169C123.341 20.5169 125.596 18.5312 125.596 15.1805C125.596 11.6645 123.383 9.8442 120.405 9.8442C119.329 9.8442 117.654 10.4234 117.054 11.4782V5.83175H114.531H114.531ZM135.524 11.1472C134.345 10.1131 133.145 9.80268 131.553 9.80268C129.691 9.80268 127.251 10.6299 127.251 12.9879C127.251 15.3044 129.547 16.0078 131.47 16.1523C132.918 16.2351 133.497 16.5246 133.497 17.2279C133.497 17.9726 132.608 18.469 131.656 18.4481C130.519 18.4275 128.864 17.8276 128.14 17.021L126.899 18.8204C128.388 20.3717 130.001 20.6405 131.615 20.6405C134.531 20.6405 136 19.0893 136 17.2899C136 14.5804 133.559 14.1462 131.635 14.0221C130.332 13.9392 129.733 13.5669 129.733 12.9051C129.733 12.2639 130.394 11.8916 131.594 11.8916C132.566 11.8916 133.393 12.1192 134.117 12.8016L135.524 11.147V11.1472Z" fill="black"/>
</svg>
